# xmcd CD database file
#
# Track frame offsets:
#	150
#	13916
#	29579
#	48415
#	63549
#	85200
#	104490
#	118046
#	140281
#	157030
#	168094
#	184361
#	199941
#	221131
#
# Disc length: 3107 seconds
#
# Revision: 2
# Processed by: cddbd v1.5.2PL0 Copyright (c) Steve Scherf et al.
# Submitted via: CDex 1.70beta2
#
DISCID=d10c210e
DTITLE=Riverthieves, Cdn. - OVM - Almonte,ON - Bandit Queen
DYEAR=2010
DGENRE=Country
TTITLE0=Bandit Queen
TTITLE1=Andrea's Jig/Tam Lin
TTITLE2=Off to the Sea
TTITLE3=Finley's Basement/Mouth of the Tobique
TTITLE4=Ma Jolie Louise/Happy One Step
TTITLE5=La Grosse Nouille/Maid Behind the Bar/Growling Old Man and Old Woman
TTITLE6=Glenn Wharple
TTITLE7=Dream Walking/Night Riding/Smokey Sunrise
TTITLE8=Everybody Leaves Sometime
TTITLE9=Rockliffe Reel
TTITLE10=Wind Through The Pines
TTITLE11=Strawman/Julia Delaqney
TTITLE12=Fisherman's Wife
TTITLE13=Val's Jig/Swallow's Tail
EXTD=YEAR: 2010
EXTT0=
EXTT1=
EXTT2=
EXTT3=
EXTT4=
EXTT5=
EXTT6=
EXTT7=
EXTT8=
EXTT9=
EXTT10=
EXTT11=
EXTT12=
EXTT13=
PLAYORDER=
